<mxfile host="app.diagrams.net" modified="2023-11-16T08:57:56.348Z" agent="Mozilla/5.0 (Macintosh; Intel Mac OS X 10_15_7) AppleWebKit/537.36 (KHTML, like Gecko) Chrome/118.0.0.0 Safari/537.36" etag="NKqSbF8d2dLXidk67jE7" version="22.1.1" type="google">
  <diagram name="Page-1" id="URvXAUoGTAdCCWXDdqtg">
    <mxGraphModel grid="1" page="1" gridSize="10" guides="1" tooltips="1" connect="1" arrows="1" fold="1" pageScale="1" pageWidth="850" pageHeight="1100" math="0" shadow="0">
      <root>
        <mxCell id="0" />
        <mxCell id="1" parent="0" />
        <mxCell id="1XSzjVtJwLmHqd4a_Qun-15" value="" style="group" connectable="0" vertex="1" parent="1">
          <mxGeometry x="150" width="1330" height="1660.0000000000002" as="geometry" />
        </mxCell>
        <mxCell id="1XSzjVtJwLmHqd4a_Qun-16" value="" style="group" connectable="0" vertex="1" parent="1XSzjVtJwLmHqd4a_Qun-15">
          <mxGeometry x="172.5" y="343" width="1102.5" height="1317.0000000000002" as="geometry" />
        </mxCell>
        <mxCell id="1XSzjVtJwLmHqd4a_Qun-4" value="" style="rounded=0;whiteSpace=wrap;html=1;fillColor=none;" vertex="1" parent="1XSzjVtJwLmHqd4a_Qun-16">
          <mxGeometry width="722.5" height="137" as="geometry" />
        </mxCell>
        <mxCell id="1XSzjVtJwLmHqd4a_Qun-5" value="&amp;lt;&amp;lt;subsystem&amp;gt;&amp;gt;&lt;br&gt;Controller" style="text;html=1;strokeColor=none;fillColor=none;align=center;verticalAlign=middle;whiteSpace=wrap;rounded=0;" vertex="1" parent="1XSzjVtJwLmHqd4a_Qun-16">
          <mxGeometry x="331.6666666666667" y="12" width="56.666666666666664" height="30" as="geometry" />
        </mxCell>
        <mxCell id="gsQeB8420r4Wkmhs-U_B-48" value="" style="group" connectable="0" vertex="1" parent="1XSzjVtJwLmHqd4a_Qun-16">
          <mxGeometry x="442.5" y="67" width="130" height="61" as="geometry" />
        </mxCell>
        <mxCell id="gsQeB8420r4Wkmhs-U_B-49" value="" style="rounded=0;whiteSpace=wrap;html=1;fillColor=none;" vertex="1" parent="gsQeB8420r4Wkmhs-U_B-48">
          <mxGeometry width="120" height="60" as="geometry" />
        </mxCell>
        <mxCell id="gsQeB8420r4Wkmhs-U_B-50" value="&amp;lt;&amp;lt;subsystem&amp;gt;&amp;gt;&lt;br&gt;Library Controller" style="text;html=1;strokeColor=none;fillColor=none;align=center;verticalAlign=middle;whiteSpace=wrap;rounded=0;" vertex="1" parent="gsQeB8420r4Wkmhs-U_B-48">
          <mxGeometry x="10" y="15" width="100" height="30" as="geometry" />
        </mxCell>
        <mxCell id="gsQeB8420r4Wkmhs-U_B-51" value="" style="group" connectable="0" vertex="1" parent="1XSzjVtJwLmHqd4a_Qun-16">
          <mxGeometry x="577.5" y="67" width="150" height="61" as="geometry" />
        </mxCell>
        <mxCell id="gsQeB8420r4Wkmhs-U_B-52" value="" style="rounded=0;whiteSpace=wrap;html=1;fillColor=none;" vertex="1" parent="gsQeB8420r4Wkmhs-U_B-51">
          <mxGeometry x="4" width="120" height="60" as="geometry" />
        </mxCell>
        <mxCell id="gsQeB8420r4Wkmhs-U_B-53" value="&amp;lt;&amp;lt;subsystem&amp;gt;&amp;gt;&lt;br style=&quot;border-color: var(--border-color);&quot;&gt;Like Controller" style="text;html=1;strokeColor=none;fillColor=none;align=center;verticalAlign=middle;whiteSpace=wrap;rounded=0;" vertex="1" parent="gsQeB8420r4Wkmhs-U_B-51">
          <mxGeometry x="4" y="15" width="120" height="30" as="geometry" />
        </mxCell>
        <mxCell id="gsQeB8420r4Wkmhs-U_B-42" value="" style="group" connectable="0" vertex="1" parent="1XSzjVtJwLmHqd4a_Qun-16">
          <mxGeometry x="21" y="67" width="150" height="61" as="geometry" />
        </mxCell>
        <mxCell id="gsQeB8420r4Wkmhs-U_B-43" value="" style="rounded=0;whiteSpace=wrap;html=1;fillColor=none;" vertex="1" parent="gsQeB8420r4Wkmhs-U_B-42">
          <mxGeometry width="120" height="60" as="geometry" />
        </mxCell>
        <mxCell id="gsQeB8420r4Wkmhs-U_B-44" value="&amp;lt;&amp;lt;subsystem&amp;gt;&amp;gt;&lt;br&gt;User&lt;br&gt;&amp;nbsp;Controller" style="text;html=1;strokeColor=none;fillColor=none;align=center;verticalAlign=middle;whiteSpace=wrap;rounded=0;" vertex="1" parent="gsQeB8420r4Wkmhs-U_B-42">
          <mxGeometry y="15" width="120" height="30" as="geometry" />
        </mxCell>
        <mxCell id="ssy3nLR4-ETo5lvdwy51-38" value="" style="rounded=0;whiteSpace=wrap;html=1;" vertex="1" parent="1XSzjVtJwLmHqd4a_Qun-16">
          <mxGeometry x="21" y="47" width="40" height="20" as="geometry" />
        </mxCell>
        <mxCell id="ssy3nLR4-ETo5lvdwy51-46" value="" style="rounded=0;whiteSpace=wrap;html=1;" vertex="1" parent="1XSzjVtJwLmHqd4a_Qun-16">
          <mxGeometry x="442.5" y="47" width="40" height="20" as="geometry" />
        </mxCell>
        <mxCell id="ssy3nLR4-ETo5lvdwy51-47" value="" style="rounded=0;whiteSpace=wrap;html=1;" vertex="1" parent="1XSzjVtJwLmHqd4a_Qun-16">
          <mxGeometry x="581.5" y="47" width="40" height="20" as="geometry" />
        </mxCell>
        <mxCell id="VD4HpKR2cZ5eDXk-qmv2-13" value="" style="group" connectable="0" vertex="1" parent="1XSzjVtJwLmHqd4a_Qun-16">
          <mxGeometry x="162.5" y="67" width="140" height="61" as="geometry" />
        </mxCell>
        <mxCell id="VD4HpKR2cZ5eDXk-qmv2-14" value="" style="rounded=0;whiteSpace=wrap;html=1;fillColor=none;" vertex="1" parent="VD4HpKR2cZ5eDXk-qmv2-13">
          <mxGeometry width="120" height="60" as="geometry" />
        </mxCell>
        <mxCell id="VD4HpKR2cZ5eDXk-qmv2-15" value="&amp;lt;&amp;lt;subsystem&amp;gt;&amp;gt;&lt;br&gt;Follow User&lt;br&gt;Controller" style="text;html=1;strokeColor=none;fillColor=none;align=center;verticalAlign=middle;whiteSpace=wrap;rounded=0;" vertex="1" parent="VD4HpKR2cZ5eDXk-qmv2-13">
          <mxGeometry x="5" y="15" width="110" height="30" as="geometry" />
        </mxCell>
        <mxCell id="ssy3nLR4-ETo5lvdwy51-44" value="" style="rounded=0;whiteSpace=wrap;html=1;" vertex="1" parent="VD4HpKR2cZ5eDXk-qmv2-13">
          <mxGeometry y="-20" width="40" height="20" as="geometry" />
        </mxCell>
        <mxCell id="VD4HpKR2cZ5eDXk-qmv2-2" value="" style="group" connectable="0" vertex="1" parent="1XSzjVtJwLmHqd4a_Qun-16">
          <mxGeometry x="302" y="67" width="150" height="61" as="geometry" />
        </mxCell>
        <mxCell id="VD4HpKR2cZ5eDXk-qmv2-3" value="" style="rounded=0;whiteSpace=wrap;html=1;fillColor=none;" vertex="1" parent="VD4HpKR2cZ5eDXk-qmv2-2">
          <mxGeometry width="120" height="60" as="geometry" />
        </mxCell>
        <mxCell id="VD4HpKR2cZ5eDXk-qmv2-4" value="&amp;lt;&amp;lt;subsystem&amp;gt;&amp;gt;&lt;br style=&quot;border-color: var(--border-color);&quot;&gt;Project Controller" style="text;html=1;strokeColor=none;fillColor=none;align=center;verticalAlign=middle;whiteSpace=wrap;rounded=0;" vertex="1" parent="VD4HpKR2cZ5eDXk-qmv2-2">
          <mxGeometry y="15" width="120" height="30" as="geometry" />
        </mxCell>
        <mxCell id="ssy3nLR4-ETo5lvdwy51-49" value="" style="rounded=0;whiteSpace=wrap;html=1;" vertex="1" parent="1XSzjVtJwLmHqd4a_Qun-16">
          <mxGeometry x="302" y="47" width="40" height="20" as="geometry" />
        </mxCell>
        <mxCell id="ssy3nLR4-ETo5lvdwy51-6" value="" style="endArrow=classic;startArrow=classic;html=1;rounded=0;exitX=0.5;exitY=0;exitDx=0;exitDy=0;entryX=0.497;entryY=0.987;entryDx=0;entryDy=0;entryPerimeter=0;" edge="1" parent="1XSzjVtJwLmHqd4a_Qun-16" source="1XSzjVtJwLmHqd4a_Qun-6" target="1XSzjVtJwLmHqd4a_Qun-4">
          <mxGeometry width="50" height="50" relative="1" as="geometry">
            <mxPoint x="192.5" y="447" as="sourcePoint" />
            <mxPoint x="242.5" y="397" as="targetPoint" />
          </mxGeometry>
        </mxCell>
        <mxCell id="1XSzjVtJwLmHqd4a_Qun-8" value="" style="rounded=0;whiteSpace=wrap;html=1;fillColor=none;" vertex="1" parent="1XSzjVtJwLmHqd4a_Qun-16">
          <mxGeometry x="-121.5" y="1027" width="460" height="150" as="geometry" />
        </mxCell>
        <mxCell id="1XSzjVtJwLmHqd4a_Qun-9" value="&amp;lt;&amp;lt;subsystem&amp;gt;&amp;gt;&lt;br&gt;Database" style="text;html=1;strokeColor=none;fillColor=none;align=center;verticalAlign=middle;whiteSpace=wrap;rounded=0;" vertex="1" parent="1XSzjVtJwLmHqd4a_Qun-16">
          <mxGeometry x="69.81" y="1042" width="60" height="30" as="geometry" />
        </mxCell>
        <mxCell id="1XSzjVtJwLmHqd4a_Qun-6" value="" style="rounded=0;whiteSpace=wrap;html=1;fillColor=none;" vertex="1" parent="1XSzjVtJwLmHqd4a_Qun-16">
          <mxGeometry x="-1.18" y="187" width="720" height="253" as="geometry" />
        </mxCell>
        <mxCell id="1XSzjVtJwLmHqd4a_Qun-7" value="&amp;lt;&amp;lt;subsystem&amp;gt;&amp;gt;&lt;br&gt;Service" style="text;html=1;strokeColor=none;fillColor=none;align=center;verticalAlign=middle;whiteSpace=wrap;rounded=0;" vertex="1" parent="1XSzjVtJwLmHqd4a_Qun-16">
          <mxGeometry x="330.489758881621" y="196.9995454545455" width="53.97434910863153" height="43.125" as="geometry" />
        </mxCell>
        <mxCell id="ssy3nLR4-ETo5lvdwy51-54" value="" style="rounded=0;whiteSpace=wrap;html=1;fillColor=none;" vertex="1" parent="1XSzjVtJwLmHqd4a_Qun-16">
          <mxGeometry x="19.82" y="277.69" width="119" height="62.73" as="geometry" />
        </mxCell>
        <mxCell id="ssy3nLR4-ETo5lvdwy51-55" value="&amp;lt;&amp;lt;subsystem&amp;gt;&amp;gt;&lt;br&gt;User Service" style="text;html=1;strokeColor=none;fillColor=none;align=center;verticalAlign=middle;whiteSpace=wrap;rounded=0;" vertex="1" parent="1XSzjVtJwLmHqd4a_Qun-16">
          <mxGeometry x="19.82349749903807" y="293.3768181818182" width="118.16006156213926" height="31.363636363636367" as="geometry" />
        </mxCell>
        <mxCell id="ssy3nLR4-ETo5lvdwy51-56" value="" style="rounded=0;whiteSpace=wrap;html=1;" vertex="1" parent="1XSzjVtJwLmHqd4a_Qun-16">
          <mxGeometry x="19.82349749903807" y="256.78590909090894" width="39.38668718737976" height="20.90909090909091" as="geometry" />
        </mxCell>
        <mxCell id="ssy3nLR4-ETo5lvdwy51-57" value="" style="rounded=0;whiteSpace=wrap;html=1;fillColor=none;" vertex="1" parent="1XSzjVtJwLmHqd4a_Qun-16">
          <mxGeometry x="161.66357445171218" y="277.69499999999994" width="118.16006156213926" height="62.727272727272734" as="geometry" />
        </mxCell>
        <mxCell id="ssy3nLR4-ETo5lvdwy51-58" value="&amp;lt;&amp;lt;subsystem&amp;gt;&amp;gt;&lt;br&gt;Library Service" style="text;html=1;strokeColor=none;fillColor=none;align=center;verticalAlign=middle;whiteSpace=wrap;rounded=0;" vertex="1" parent="1XSzjVtJwLmHqd4a_Qun-16">
          <mxGeometry x="161.66357445171218" y="293.3768181818182" width="118.16006156213926" height="26.136363636363637" as="geometry" />
        </mxCell>
        <mxCell id="ssy3nLR4-ETo5lvdwy51-59" value="" style="rounded=0;whiteSpace=wrap;html=1;" vertex="1" parent="1XSzjVtJwLmHqd4a_Qun-16">
          <mxGeometry x="161.66357445171218" y="256.78590909090894" width="39.38668718737976" height="20.90909090909091" as="geometry" />
        </mxCell>
        <mxCell id="ssy3nLR4-ETo5lvdwy51-60" value="" style="rounded=0;whiteSpace=wrap;html=1;fillColor=none;" vertex="1" parent="1XSzjVtJwLmHqd4a_Qun-16">
          <mxGeometry x="299.82" y="277.69" width="119" height="62.73" as="geometry" />
        </mxCell>
        <mxCell id="ssy3nLR4-ETo5lvdwy51-61" value="&amp;lt;&amp;lt;subsystem&amp;gt;&amp;gt;&lt;br&gt;Like Service" style="text;html=1;strokeColor=none;fillColor=none;align=center;verticalAlign=middle;whiteSpace=wrap;rounded=0;" vertex="1" parent="1XSzjVtJwLmHqd4a_Qun-16">
          <mxGeometry x="299.82000000000005" y="296.79999999999995" width="118.16" height="24.52" as="geometry" />
        </mxCell>
        <mxCell id="ssy3nLR4-ETo5lvdwy51-62" value="" style="rounded=0;whiteSpace=wrap;html=1;" vertex="1" parent="1XSzjVtJwLmHqd4a_Qun-16">
          <mxGeometry x="299.8236514043864" y="256.78590909090894" width="39.38668718737976" height="20.90909090909091" as="geometry" />
        </mxCell>
        <mxCell id="OByAy30Esht4Jp0frHA6-53" value="" style="rounded=0;whiteSpace=wrap;html=1;" vertex="1" parent="1XSzjVtJwLmHqd4a_Qun-16">
          <mxGeometry x="229.28357445171216" y="346.995909090909" width="39.38668718737976" height="20.90909090909091" as="geometry" />
        </mxCell>
        <mxCell id="ssy3nLR4-ETo5lvdwy51-87" value="" style="rounded=0;whiteSpace=wrap;html=1;fillColor=none;" vertex="1" parent="1XSzjVtJwLmHqd4a_Qun-16">
          <mxGeometry x="577.8160115429012" y="277.695" width="118.16006156213926" height="62.727272727272734" as="geometry" />
        </mxCell>
        <mxCell id="ssy3nLR4-ETo5lvdwy51-88" value="&amp;lt;&amp;lt;subsystem&amp;gt;&amp;gt;&lt;br&gt;&amp;nbsp;Project Service" style="text;html=1;strokeColor=none;fillColor=none;align=center;verticalAlign=middle;whiteSpace=wrap;rounded=0;" vertex="1" parent="1XSzjVtJwLmHqd4a_Qun-16">
          <mxGeometry x="578.68" y="296.34" width="118.16" height="28.4" as="geometry" />
        </mxCell>
        <mxCell id="ssy3nLR4-ETo5lvdwy51-89" value="" style="rounded=0;whiteSpace=wrap;html=1;" vertex="1" parent="1XSzjVtJwLmHqd4a_Qun-16">
          <mxGeometry x="577.8160115429012" y="256.78590909090923" width="39.38668718737976" height="20.90909090909091" as="geometry" />
        </mxCell>
        <mxCell id="ssy3nLR4-ETo5lvdwy51-20" value="" style="rounded=0;whiteSpace=wrap;html=1;" vertex="1" parent="1XSzjVtJwLmHqd4a_Qun-16">
          <mxGeometry x="-1.18" y="167" width="140" height="20" as="geometry" />
        </mxCell>
        <mxCell id="ssy3nLR4-ETo5lvdwy51-64" value="&amp;lt;&amp;lt;subsystem&amp;gt;&amp;gt;&lt;br&gt;&amp;nbsp;Follow Service" style="text;html=1;strokeColor=none;fillColor=none;align=center;verticalAlign=middle;whiteSpace=wrap;rounded=0;" vertex="1" parent="1XSzjVtJwLmHqd4a_Qun-16">
          <mxGeometry x="229.2837283570603" y="383.5868181818182" width="118.16006156213926" height="31.363636363636367" as="geometry" />
        </mxCell>
        <mxCell id="ssy3nLR4-ETo5lvdwy51-63" value="" style="rounded=0;whiteSpace=wrap;html=1;fillColor=none;" vertex="1" parent="1XSzjVtJwLmHqd4a_Qun-16">
          <mxGeometry x="229.2837283570603" y="367.905" width="118.16006156213926" height="62.727272727272734" as="geometry" />
        </mxCell>
        <mxCell id="OByAy30Esht4Jp0frHA6-2" value="&amp;lt;&amp;lt;subsystem&amp;gt;&amp;gt;&lt;br&gt;Search Service" style="text;html=1;strokeColor=none;fillColor=none;align=center;verticalAlign=middle;whiteSpace=wrap;rounded=0;" vertex="1" parent="1XSzjVtJwLmHqd4a_Qun-16">
          <mxGeometry x="370.20334359368985" y="383.58727272727265" width="118.16006156213926" height="31.363636363636367" as="geometry" />
        </mxCell>
        <mxCell id="OByAy30Esht4Jp0frHA6-3" value="" style="rounded=0;whiteSpace=wrap;html=1;" vertex="1" parent="1XSzjVtJwLmHqd4a_Qun-16">
          <mxGeometry x="369.08334359368985" y="346.99636363636364" width="39.38668718737976" height="20.90909090909091" as="geometry" />
        </mxCell>
        <mxCell id="OByAy30Esht4Jp0frHA6-1" value="" style="rounded=0;whiteSpace=wrap;html=1;fillColor=none;" vertex="1" parent="1XSzjVtJwLmHqd4a_Qun-16">
          <mxGeometry x="369.28334359368984" y="367.9054545454544" width="118.16006156213926" height="62.727272727272734" as="geometry" />
        </mxCell>
        <mxCell id="OByAy30Esht4Jp0frHA6-54" value="" style="rounded=0;whiteSpace=wrap;html=1;" vertex="1" parent="1XSzjVtJwLmHqd4a_Qun-16">
          <mxGeometry x="438.8233435936898" y="256.7863636363636" width="39.38668718737976" height="20.90909090909091" as="geometry" />
        </mxCell>
        <mxCell id="OByAy30Esht4Jp0frHA6-55" value="" style="rounded=0;whiteSpace=wrap;html=1;fillColor=none;" vertex="1" parent="1XSzjVtJwLmHqd4a_Qun-16">
          <mxGeometry x="438.8233435936898" y="277.69545454545437" width="118.16006156213926" height="62.727272727272734" as="geometry" />
        </mxCell>
        <mxCell id="OByAy30Esht4Jp0frHA6-56" value="&amp;lt;&amp;lt;subsystem&amp;gt;&amp;gt;&lt;br&gt;Hashtag Service" style="text;html=1;strokeColor=none;fillColor=none;align=center;verticalAlign=middle;whiteSpace=wrap;rounded=0;" vertex="1" parent="1XSzjVtJwLmHqd4a_Qun-16">
          <mxGeometry x="438.82" y="296.7900000000001" width="118.16" height="24.52" as="geometry" />
        </mxCell>
        <mxCell id="OByAy30Esht4Jp0frHA6-50" value="&lt;font style=&quot;font-size: 36px;&quot;&gt;Service&lt;/font&gt;" style="text;html=1;align=center;verticalAlign=middle;resizable=0;points=[];autosize=1;strokeColor=none;fillColor=none;" vertex="1" parent="1XSzjVtJwLmHqd4a_Qun-16">
          <mxGeometry x="776.3200000000002" y="277" width="140" height="60" as="geometry" />
        </mxCell>
        <mxCell id="ssy3nLR4-ETo5lvdwy51-1" value="" style="rounded=0;whiteSpace=wrap;html=1;fillColor=none;" vertex="1" parent="1XSzjVtJwLmHqd4a_Qun-16">
          <mxGeometry x="470" y="1027" width="593.32" height="150" as="geometry" />
        </mxCell>
        <mxCell id="ssy3nLR4-ETo5lvdwy51-2" value="&amp;lt;&amp;lt;subsystem&amp;gt;&amp;gt;&lt;br&gt;Server" style="text;html=1;strokeColor=none;fillColor=none;align=center;verticalAlign=middle;whiteSpace=wrap;rounded=0;" vertex="1" parent="1XSzjVtJwLmHqd4a_Qun-16">
          <mxGeometry x="761.32" y="1042" width="60" height="30" as="geometry" />
        </mxCell>
        <mxCell id="ssy3nLR4-ETo5lvdwy51-22" value="" style="rounded=0;whiteSpace=wrap;html=1;" vertex="1" parent="1XSzjVtJwLmHqd4a_Qun-16">
          <mxGeometry x="-121.5" y="1007" width="100" height="20" as="geometry" />
        </mxCell>
        <mxCell id="ssy3nLR4-ETo5lvdwy51-23" value="" style="rounded=0;whiteSpace=wrap;html=1;" vertex="1" parent="1XSzjVtJwLmHqd4a_Qun-16">
          <mxGeometry x="470" y="1007" width="140" height="20" as="geometry" />
        </mxCell>
        <mxCell id="ssy3nLR4-ETo5lvdwy51-70" value="" style="rounded=0;whiteSpace=wrap;html=1;fillColor=none;" vertex="1" parent="1XSzjVtJwLmHqd4a_Qun-16">
          <mxGeometry x="503.32000000000005" y="1107" width="120" height="60" as="geometry" />
        </mxCell>
        <mxCell id="ssy3nLR4-ETo5lvdwy51-71" value="&amp;lt;&amp;lt;subsystem&amp;gt;&amp;gt;&lt;br&gt;&amp;nbsp;Google Login API&lt;br&gt;Server" style="text;html=1;strokeColor=none;fillColor=none;align=center;verticalAlign=middle;whiteSpace=wrap;rounded=0;" vertex="1" parent="1XSzjVtJwLmHqd4a_Qun-16">
          <mxGeometry x="503.32000000000005" y="1122" width="120" height="30" as="geometry" />
        </mxCell>
        <mxCell id="ssy3nLR4-ETo5lvdwy51-72" value="" style="rounded=0;whiteSpace=wrap;html=1;" vertex="1" parent="1XSzjVtJwLmHqd4a_Qun-16">
          <mxGeometry x="503.32000000000005" y="1087" width="40" height="20" as="geometry" />
        </mxCell>
        <mxCell id="ssy3nLR4-ETo5lvdwy51-73" value="" style="rounded=0;whiteSpace=wrap;html=1;fillColor=none;" vertex="1" parent="1XSzjVtJwLmHqd4a_Qun-16">
          <mxGeometry x="643.32" y="1107" width="120" height="60" as="geometry" />
        </mxCell>
        <mxCell id="ssy3nLR4-ETo5lvdwy51-74" value="&amp;lt;&amp;lt;subsystem&amp;gt;&amp;gt;&lt;br&gt;&amp;nbsp;NGINX Server" style="text;html=1;strokeColor=none;fillColor=none;align=center;verticalAlign=middle;whiteSpace=wrap;rounded=0;" vertex="1" parent="1XSzjVtJwLmHqd4a_Qun-16">
          <mxGeometry x="643.32" y="1122" width="120" height="30" as="geometry" />
        </mxCell>
        <mxCell id="ssy3nLR4-ETo5lvdwy51-75" value="" style="rounded=0;whiteSpace=wrap;html=1;" vertex="1" parent="1XSzjVtJwLmHqd4a_Qun-16">
          <mxGeometry x="643.32" y="1087" width="40" height="20" as="geometry" />
        </mxCell>
        <mxCell id="ssy3nLR4-ETo5lvdwy51-81" value="" style="rounded=0;whiteSpace=wrap;html=1;fillColor=none;" vertex="1" parent="1XSzjVtJwLmHqd4a_Qun-16">
          <mxGeometry x="783.32" y="1107" width="120" height="60" as="geometry" />
        </mxCell>
        <mxCell id="ssy3nLR4-ETo5lvdwy51-82" value="&amp;lt;&amp;lt;subsystem&amp;gt;&amp;gt;&lt;br&gt;&amp;nbsp;Development Server" style="text;html=1;strokeColor=none;fillColor=none;align=center;verticalAlign=middle;whiteSpace=wrap;rounded=0;" vertex="1" parent="1XSzjVtJwLmHqd4a_Qun-16">
          <mxGeometry x="783.32" y="1122" width="120" height="30" as="geometry" />
        </mxCell>
        <mxCell id="ssy3nLR4-ETo5lvdwy51-83" value="" style="rounded=0;whiteSpace=wrap;html=1;" vertex="1" parent="1XSzjVtJwLmHqd4a_Qun-16">
          <mxGeometry x="783.32" y="1087" width="40" height="20" as="geometry" />
        </mxCell>
        <mxCell id="ssy3nLR4-ETo5lvdwy51-84" value="" style="rounded=0;whiteSpace=wrap;html=1;fillColor=none;" vertex="1" parent="1XSzjVtJwLmHqd4a_Qun-16">
          <mxGeometry x="923.32" y="1107" width="120" height="60" as="geometry" />
        </mxCell>
        <mxCell id="ssy3nLR4-ETo5lvdwy51-85" value="&amp;lt;&amp;lt;subsystem&amp;gt;&amp;gt;&lt;br&gt;&amp;nbsp;Deploy Server" style="text;html=1;strokeColor=none;fillColor=none;align=center;verticalAlign=middle;whiteSpace=wrap;rounded=0;" vertex="1" parent="1XSzjVtJwLmHqd4a_Qun-16">
          <mxGeometry x="923.32" y="1122" width="120" height="30" as="geometry" />
        </mxCell>
        <mxCell id="ssy3nLR4-ETo5lvdwy51-86" value="" style="rounded=0;whiteSpace=wrap;html=1;" vertex="1" parent="1XSzjVtJwLmHqd4a_Qun-16">
          <mxGeometry x="923.32" y="1087" width="40" height="20" as="geometry" />
        </mxCell>
        <mxCell id="ssy3nLR4-ETo5lvdwy51-90" value="" style="rounded=0;whiteSpace=wrap;html=1;fillColor=none;" vertex="1" parent="1XSzjVtJwLmHqd4a_Qun-16">
          <mxGeometry x="-103.99521739130435" y="1104.5" width="122.6086956521739" height="60" as="geometry" />
        </mxCell>
        <mxCell id="ssy3nLR4-ETo5lvdwy51-91" value="&amp;lt;&amp;lt;subsystem&amp;gt;&amp;gt;&lt;br&gt;MySQL" style="text;html=1;strokeColor=none;fillColor=none;align=center;verticalAlign=middle;whiteSpace=wrap;rounded=0;" vertex="1" parent="1XSzjVtJwLmHqd4a_Qun-16">
          <mxGeometry x="-103.99521739130435" y="1119.5" width="122.6086956521739" height="30" as="geometry" />
        </mxCell>
        <mxCell id="ssy3nLR4-ETo5lvdwy51-92" value="" style="rounded=0;whiteSpace=wrap;html=1;" vertex="1" parent="1XSzjVtJwLmHqd4a_Qun-16">
          <mxGeometry x="-103.99521739130435" y="1084.5" width="40.86956521739131" height="20" as="geometry" />
        </mxCell>
        <mxCell id="ssy3nLR4-ETo5lvdwy51-93" value="" style="rounded=0;whiteSpace=wrap;html=1;fillColor=none;" vertex="1" parent="1XSzjVtJwLmHqd4a_Qun-16">
          <mxGeometry x="46.004782608695685" y="1104.5" width="122.6086956521739" height="60" as="geometry" />
        </mxCell>
        <mxCell id="ssy3nLR4-ETo5lvdwy51-94" value="&amp;lt;&amp;lt;subsystem&amp;gt;&amp;gt;&lt;br&gt;In Memory DB" style="text;html=1;strokeColor=none;fillColor=none;align=center;verticalAlign=middle;whiteSpace=wrap;rounded=0;" vertex="1" parent="1XSzjVtJwLmHqd4a_Qun-16">
          <mxGeometry x="46.004782608695685" y="1119.5" width="122.6086956521739" height="30" as="geometry" />
        </mxCell>
        <mxCell id="ssy3nLR4-ETo5lvdwy51-95" value="" style="rounded=0;whiteSpace=wrap;html=1;" vertex="1" parent="1XSzjVtJwLmHqd4a_Qun-16">
          <mxGeometry x="46.004782608695685" y="1084.5" width="40.86956521739131" height="20" as="geometry" />
        </mxCell>
        <mxCell id="ssy3nLR4-ETo5lvdwy51-99" value="" style="rounded=0;whiteSpace=wrap;html=1;fillColor=none;" vertex="1" parent="1XSzjVtJwLmHqd4a_Qun-16">
          <mxGeometry x="198.38999999999993" y="1104.5" width="122.61" height="60" as="geometry" />
        </mxCell>
        <mxCell id="ssy3nLR4-ETo5lvdwy51-100" value="&amp;lt;&amp;lt;subsystem&amp;gt;&amp;gt;&lt;br&gt;Browser Storage" style="text;html=1;strokeColor=none;fillColor=none;align=center;verticalAlign=middle;whiteSpace=wrap;rounded=0;" vertex="1" parent="1XSzjVtJwLmHqd4a_Qun-16">
          <mxGeometry x="198.38999999999993" y="1134.5" width="122.61" height="10" as="geometry" />
        </mxCell>
        <mxCell id="ssy3nLR4-ETo5lvdwy51-101" value="" style="rounded=0;whiteSpace=wrap;html=1;" vertex="1" parent="1XSzjVtJwLmHqd4a_Qun-16">
          <mxGeometry x="198.3947826086956" y="1084.5" width="40.86956521739131" height="20" as="geometry" />
        </mxCell>
        <mxCell id="OByAy30Esht4Jp0frHA6-4" value="" style="rounded=0;whiteSpace=wrap;html=1;fillColor=none;" vertex="1" parent="1XSzjVtJwLmHqd4a_Qun-16">
          <mxGeometry x="-1.3000000000000045" y="797" width="718.99" height="150" as="geometry" />
        </mxCell>
        <mxCell id="OByAy30Esht4Jp0frHA6-45" style="edgeStyle=orthogonalEdgeStyle;rounded=0;orthogonalLoop=1;jettySize=auto;html=1;" edge="1" parent="1XSzjVtJwLmHqd4a_Qun-16" source="1XSzjVtJwLmHqd4a_Qun-8" target="OByAy30Esht4Jp0frHA6-4">
          <mxGeometry relative="1" as="geometry" />
        </mxCell>
        <mxCell id="OByAy30Esht4Jp0frHA6-46" style="edgeStyle=orthogonalEdgeStyle;rounded=0;orthogonalLoop=1;jettySize=auto;html=1;" edge="1" parent="1XSzjVtJwLmHqd4a_Qun-16" source="ssy3nLR4-ETo5lvdwy51-1" target="OByAy30Esht4Jp0frHA6-4">
          <mxGeometry relative="1" as="geometry" />
        </mxCell>
        <mxCell id="OByAy30Esht4Jp0frHA6-5" value="&amp;lt;&amp;lt;subsystem&amp;gt;&amp;gt;&lt;br&gt;Interface" style="text;html=1;strokeColor=none;fillColor=none;align=center;verticalAlign=middle;whiteSpace=wrap;rounded=0;" vertex="1" parent="1XSzjVtJwLmHqd4a_Qun-16">
          <mxGeometry x="329.8397588816211" y="806.9995454545456" width="53.97434910863153" height="43.125" as="geometry" />
        </mxCell>
        <mxCell id="OByAy30Esht4Jp0frHA6-6" value="" style="rounded=0;whiteSpace=wrap;html=1;fillColor=none;" vertex="1" parent="1XSzjVtJwLmHqd4a_Qun-16">
          <mxGeometry x="20.073343593689863" y="871.0354545454545" width="118.16006156213926" height="62.727272727272734" as="geometry" />
        </mxCell>
        <mxCell id="OByAy30Esht4Jp0frHA6-7" value="&amp;lt;&amp;lt;subsystem&amp;gt;&amp;gt;&lt;br&gt;Google Login Interface" style="text;html=1;strokeColor=none;fillColor=none;align=center;verticalAlign=middle;whiteSpace=wrap;rounded=0;" vertex="1" parent="1XSzjVtJwLmHqd4a_Qun-16">
          <mxGeometry x="20.073343593689863" y="886.7172727272728" width="118.16006156213926" height="31.363636363636367" as="geometry" />
        </mxCell>
        <mxCell id="OByAy30Esht4Jp0frHA6-8" value="" style="rounded=0;whiteSpace=wrap;html=1;" vertex="1" parent="1XSzjVtJwLmHqd4a_Qun-16">
          <mxGeometry x="20.073343593689863" y="850.1263636363637" width="39.38668718737976" height="20.90909090909091" as="geometry" />
        </mxCell>
        <mxCell id="OByAy30Esht4Jp0frHA6-21" value="" style="rounded=0;whiteSpace=wrap;html=1;fillColor=none;" vertex="1" parent="1XSzjVtJwLmHqd4a_Qun-16">
          <mxGeometry x="160.07342054636405" y="871.0354545454545" width="118.16006156213926" height="62.727272727272734" as="geometry" />
        </mxCell>
        <mxCell id="OByAy30Esht4Jp0frHA6-22" value="&amp;lt;&amp;lt;subsystem&amp;gt;&amp;gt;&lt;br&gt;RDB Interface" style="text;html=1;strokeColor=none;fillColor=none;align=center;verticalAlign=middle;whiteSpace=wrap;rounded=0;" vertex="1" parent="1XSzjVtJwLmHqd4a_Qun-16">
          <mxGeometry x="160.07342054636405" y="886.7172727272728" width="118.16006156213926" height="31.363636363636367" as="geometry" />
        </mxCell>
        <mxCell id="OByAy30Esht4Jp0frHA6-23" value="" style="rounded=0;whiteSpace=wrap;html=1;" vertex="1" parent="1XSzjVtJwLmHqd4a_Qun-16">
          <mxGeometry x="160.07342054636405" y="850.1263636363637" width="39.38668718737976" height="20.90909090909091" as="geometry" />
        </mxCell>
        <mxCell id="OByAy30Esht4Jp0frHA6-27" value="" style="rounded=0;whiteSpace=wrap;html=1;fillColor=none;" vertex="1" parent="1XSzjVtJwLmHqd4a_Qun-16">
          <mxGeometry x="439.1933435936899" y="871.0354545454543" width="118.16006156213926" height="62.727272727272734" as="geometry" />
        </mxCell>
        <mxCell id="OByAy30Esht4Jp0frHA6-28" value="&amp;lt;&amp;lt;subsystem&amp;gt;&amp;gt;&lt;br&gt;JPA Interface" style="text;html=1;strokeColor=none;fillColor=none;align=center;verticalAlign=middle;whiteSpace=wrap;rounded=0;" vertex="1" parent="1XSzjVtJwLmHqd4a_Qun-16">
          <mxGeometry x="439.1933435936899" y="886.7172727272728" width="118.16006156213926" height="31.363636363636367" as="geometry" />
        </mxCell>
        <mxCell id="OByAy30Esht4Jp0frHA6-29" value="" style="rounded=0;whiteSpace=wrap;html=1;" vertex="1" parent="1XSzjVtJwLmHqd4a_Qun-16">
          <mxGeometry x="439.1933435936899" y="850.1263636363637" width="39.38668718737976" height="20.90909090909091" as="geometry" />
        </mxCell>
        <mxCell id="OByAy30Esht4Jp0frHA6-30" value="" style="rounded=0;whiteSpace=wrap;html=1;fillColor=none;" vertex="1" parent="1XSzjVtJwLmHqd4a_Qun-16">
          <mxGeometry x="577.1825825317429" y="871.0354545454543" width="118.16006156213926" height="62.727272727272734" as="geometry" />
        </mxCell>
        <mxCell id="OByAy30Esht4Jp0frHA6-31" value="&amp;lt;&amp;lt;subsystem&amp;gt;&amp;gt;&lt;br&gt;Spring Security Interface" style="text;html=1;strokeColor=none;fillColor=none;align=center;verticalAlign=middle;whiteSpace=wrap;rounded=0;" vertex="1" parent="1XSzjVtJwLmHqd4a_Qun-16">
          <mxGeometry x="577.1825825317429" y="886.7172727272728" width="118.16006156213926" height="31.363636363636367" as="geometry" />
        </mxCell>
        <mxCell id="OByAy30Esht4Jp0frHA6-32" value="" style="rounded=0;whiteSpace=wrap;html=1;" vertex="1" parent="1XSzjVtJwLmHqd4a_Qun-16">
          <mxGeometry x="577.1825825317429" y="850.1263636363637" width="39.38668718737976" height="20.90909090909091" as="geometry" />
        </mxCell>
        <mxCell id="OByAy30Esht4Jp0frHA6-33" value="" style="rounded=0;whiteSpace=wrap;html=1;" vertex="1" parent="1XSzjVtJwLmHqd4a_Qun-16">
          <mxGeometry x="-1.3000000000000045" y="777" width="138.99" height="20" as="geometry" />
        </mxCell>
        <mxCell id="OByAy30Esht4Jp0frHA6-41" value="" style="rounded=0;whiteSpace=wrap;html=1;fillColor=none;" vertex="1" parent="1XSzjVtJwLmHqd4a_Qun-16">
          <mxGeometry x="299.113420546364" y="871.0354545454545" width="118.16006156213926" height="62.727272727272734" as="geometry" />
        </mxCell>
        <mxCell id="OByAy30Esht4Jp0frHA6-43" value="" style="rounded=0;whiteSpace=wrap;html=1;" vertex="1" parent="1XSzjVtJwLmHqd4a_Qun-16">
          <mxGeometry x="299.113420546364" y="850.1263636363637" width="39.38668718737976" height="20.90909090909091" as="geometry" />
        </mxCell>
        <mxCell id="OByAy30Esht4Jp0frHA6-42" value="&amp;lt;&amp;lt;subsystem&amp;gt;&amp;gt;&lt;br&gt;SpringBoot Interface" style="text;html=1;strokeColor=none;fillColor=none;align=center;verticalAlign=middle;whiteSpace=wrap;rounded=0;" vertex="1" parent="1XSzjVtJwLmHqd4a_Qun-16">
          <mxGeometry x="299.113420546364" y="886.7172727272728" width="118.16006156213926" height="31.363636363636367" as="geometry" />
        </mxCell>
        <mxCell id="DRF6OlptFZyDDZ0QlnZI-75" style="edgeStyle=orthogonalEdgeStyle;rounded=0;orthogonalLoop=1;jettySize=auto;html=1;exitX=0.5;exitY=1;exitDx=0;exitDy=0;entryX=0.5;entryY=0;entryDx=0;entryDy=0;startArrow=classic;startFill=1;" edge="1" parent="1XSzjVtJwLmHqd4a_Qun-16" source="OByAy30Esht4Jp0frHA6-57" target="OByAy30Esht4Jp0frHA6-4">
          <mxGeometry relative="1" as="geometry" />
        </mxCell>
        <mxCell id="OByAy30Esht4Jp0frHA6-57" value="" style="rounded=0;whiteSpace=wrap;html=1;fillColor=none;" vertex="1" parent="1XSzjVtJwLmHqd4a_Qun-16">
          <mxGeometry x="0.07000000000000006" y="497" width="716.25" height="240" as="geometry" />
        </mxCell>
        <mxCell id="OByAy30Esht4Jp0frHA6-58" value="&amp;lt;&amp;lt;subsystem&amp;gt;&amp;gt;&lt;br&gt;Repository" style="text;html=1;strokeColor=none;fillColor=none;align=center;verticalAlign=middle;whiteSpace=wrap;rounded=0;" vertex="1" parent="1XSzjVtJwLmHqd4a_Qun-16">
          <mxGeometry x="331.2097588816211" y="506.99954545454545" width="53.97434910863153" height="43.125" as="geometry" />
        </mxCell>
        <mxCell id="OByAy30Esht4Jp0frHA6-59" value="" style="rounded=0;whiteSpace=wrap;html=1;fillColor=none;" vertex="1" parent="1XSzjVtJwLmHqd4a_Qun-16">
          <mxGeometry x="20.073497499038133" y="577.7049999999999" width="118.16006156213926" height="62.727272727272734" as="geometry" />
        </mxCell>
        <mxCell id="OByAy30Esht4Jp0frHA6-60" value="&amp;lt;&amp;lt;subsystem&amp;gt;&amp;gt;&lt;br&gt;User Repository" style="text;html=1;strokeColor=none;fillColor=none;align=center;verticalAlign=middle;whiteSpace=wrap;rounded=0;" vertex="1" parent="1XSzjVtJwLmHqd4a_Qun-16">
          <mxGeometry x="20.073497499038133" y="593.3868181818182" width="118.16006156213926" height="31.363636363636367" as="geometry" />
        </mxCell>
        <mxCell id="OByAy30Esht4Jp0frHA6-61" value="" style="rounded=0;whiteSpace=wrap;html=1;" vertex="1" parent="1XSzjVtJwLmHqd4a_Qun-16">
          <mxGeometry x="20.073497499038133" y="556.7959090909089" width="39.38668718737976" height="20.90909090909091" as="geometry" />
        </mxCell>
        <mxCell id="OByAy30Esht4Jp0frHA6-62" value="" style="rounded=0;whiteSpace=wrap;html=1;fillColor=none;" vertex="1" parent="1XSzjVtJwLmHqd4a_Qun-16">
          <mxGeometry x="160.07357445171226" y="577.7049999999999" width="118.16006156213926" height="62.727272727272734" as="geometry" />
        </mxCell>
        <mxCell id="OByAy30Esht4Jp0frHA6-63" value="&amp;lt;&amp;lt;subsystem&amp;gt;&amp;gt;&lt;br&gt;Library Repository" style="text;html=1;strokeColor=none;fillColor=none;align=center;verticalAlign=middle;whiteSpace=wrap;rounded=0;" vertex="1" parent="1XSzjVtJwLmHqd4a_Qun-16">
          <mxGeometry x="160.07357445171226" y="593.3868181818182" width="118.16006156213926" height="26.136363636363637" as="geometry" />
        </mxCell>
        <mxCell id="OByAy30Esht4Jp0frHA6-64" value="" style="rounded=0;whiteSpace=wrap;html=1;" vertex="1" parent="1XSzjVtJwLmHqd4a_Qun-16">
          <mxGeometry x="160.07357445171226" y="556.7959090909089" width="39.38668718737976" height="20.90909090909091" as="geometry" />
        </mxCell>
        <mxCell id="OByAy30Esht4Jp0frHA6-65" value="" style="rounded=0;whiteSpace=wrap;html=1;fillColor=none;" vertex="1" parent="1XSzjVtJwLmHqd4a_Qun-16">
          <mxGeometry x="300.07365140438645" y="577.7049999999999" width="118.16006156213926" height="62.727272727272734" as="geometry" />
        </mxCell>
        <mxCell id="OByAy30Esht4Jp0frHA6-66" value="&amp;lt;&amp;lt;subsystem&amp;gt;&amp;gt;&lt;br&gt;Like Repository" style="text;html=1;strokeColor=none;fillColor=none;align=center;verticalAlign=middle;whiteSpace=wrap;rounded=0;" vertex="1" parent="1XSzjVtJwLmHqd4a_Qun-16">
          <mxGeometry x="300.0700000000001" y="596.81" width="118.16" height="24.52" as="geometry" />
        </mxCell>
        <mxCell id="OByAy30Esht4Jp0frHA6-67" value="" style="rounded=0;whiteSpace=wrap;html=1;" vertex="1" parent="1XSzjVtJwLmHqd4a_Qun-16">
          <mxGeometry x="300.07365140438645" y="556.7959090909089" width="39.38668718737976" height="20.90909090909091" as="geometry" />
        </mxCell>
        <mxCell id="OByAy30Esht4Jp0frHA6-68" value="" style="rounded=0;whiteSpace=wrap;html=1;" vertex="1" parent="1XSzjVtJwLmHqd4a_Qun-16">
          <mxGeometry x="229.11357445171228" y="647.9059090909088" width="39.38668718737976" height="20.90909090909091" as="geometry" />
        </mxCell>
        <mxCell id="OByAy30Esht4Jp0frHA6-69" value="" style="rounded=0;whiteSpace=wrap;html=1;fillColor=none;" vertex="1" parent="1XSzjVtJwLmHqd4a_Qun-16">
          <mxGeometry x="576.3160115429012" y="577.7049999999999" width="118.16006156213926" height="62.727272727272734" as="geometry" />
        </mxCell>
        <mxCell id="OByAy30Esht4Jp0frHA6-70" value="&amp;lt;&amp;lt;subsystem&amp;gt;&amp;gt;&lt;br&gt;Project Repository" style="text;html=1;strokeColor=none;fillColor=none;align=center;verticalAlign=middle;whiteSpace=wrap;rounded=0;" vertex="1" parent="1XSzjVtJwLmHqd4a_Qun-16">
          <mxGeometry x="577.18" y="596.3499999999999" width="118.16" height="28.4" as="geometry" />
        </mxCell>
        <mxCell id="OByAy30Esht4Jp0frHA6-71" value="" style="rounded=0;whiteSpace=wrap;html=1;" vertex="1" parent="1XSzjVtJwLmHqd4a_Qun-16">
          <mxGeometry x="576.3160115429012" y="556.7959090909092" width="39.38668718737976" height="20.90909090909091" as="geometry" />
        </mxCell>
        <mxCell id="OByAy30Esht4Jp0frHA6-72" value="" style="rounded=0;whiteSpace=wrap;html=1;" vertex="1" parent="1XSzjVtJwLmHqd4a_Qun-16">
          <mxGeometry x="0.07000000000000006" y="477" width="136.25" height="20" as="geometry" />
        </mxCell>
        <mxCell id="OByAy30Esht4Jp0frHA6-73" value="&amp;lt;&amp;lt;subsystem&amp;gt;&amp;gt;&lt;br&gt;Follow Repository" style="text;html=1;strokeColor=none;fillColor=none;align=center;verticalAlign=middle;whiteSpace=wrap;rounded=0;" vertex="1" parent="1XSzjVtJwLmHqd4a_Qun-16">
          <mxGeometry x="229.11372835706032" y="684.0468181818183" width="118.16006156213926" height="31.363636363636367" as="geometry" />
        </mxCell>
        <mxCell id="OByAy30Esht4Jp0frHA6-75" value="&amp;lt;&amp;lt;subsystem&amp;gt;&amp;gt;&lt;br&gt;Search Repository" style="text;html=1;strokeColor=none;fillColor=none;align=center;verticalAlign=middle;whiteSpace=wrap;rounded=0;" vertex="1" parent="1XSzjVtJwLmHqd4a_Qun-16">
          <mxGeometry x="369.1133435936899" y="683.5872727272726" width="118.16006156213926" height="31.363636363636367" as="geometry" />
        </mxCell>
        <mxCell id="OByAy30Esht4Jp0frHA6-76" value="" style="rounded=0;whiteSpace=wrap;html=1;" vertex="1" parent="1XSzjVtJwLmHqd4a_Qun-16">
          <mxGeometry x="369.1133435936899" y="646.9963636363636" width="39.38668718737976" height="20.90909090909091" as="geometry" />
        </mxCell>
        <mxCell id="OByAy30Esht4Jp0frHA6-77" value="" style="rounded=0;whiteSpace=wrap;html=1;fillColor=none;" vertex="1" parent="1XSzjVtJwLmHqd4a_Qun-16">
          <mxGeometry x="369.1133435936899" y="667.9054545454544" width="118.16006156213926" height="62.727272727272734" as="geometry" />
        </mxCell>
        <mxCell id="OByAy30Esht4Jp0frHA6-78" value="" style="rounded=0;whiteSpace=wrap;html=1;" vertex="1" parent="1XSzjVtJwLmHqd4a_Qun-16">
          <mxGeometry x="439.1933435936898" y="556.7963636363636" width="39.38668718737976" height="20.90909090909091" as="geometry" />
        </mxCell>
        <mxCell id="OByAy30Esht4Jp0frHA6-79" value="" style="rounded=0;whiteSpace=wrap;html=1;fillColor=none;" vertex="1" parent="1XSzjVtJwLmHqd4a_Qun-16">
          <mxGeometry x="439.1933435936898" y="577.7054545454544" width="118.16006156213926" height="62.727272727272734" as="geometry" />
        </mxCell>
        <mxCell id="OByAy30Esht4Jp0frHA6-80" value="&amp;lt;&amp;lt;subsystem&amp;gt;&amp;gt;&lt;br&gt;Hashtag Repository" style="text;html=1;strokeColor=none;fillColor=none;align=center;verticalAlign=middle;whiteSpace=wrap;rounded=0;" vertex="1" parent="1XSzjVtJwLmHqd4a_Qun-16">
          <mxGeometry x="439.19" y="594.19" width="118.16" height="24.52" as="geometry" />
        </mxCell>
        <mxCell id="OByAy30Esht4Jp0frHA6-82" value="" style="rounded=0;whiteSpace=wrap;html=1;fillColor=none;" vertex="1" parent="1XSzjVtJwLmHqd4a_Qun-16">
          <mxGeometry x="229.11601154290105" y="667.9049999999997" width="118.16006156213926" height="62.727272727272734" as="geometry" />
        </mxCell>
        <mxCell id="DRF6OlptFZyDDZ0QlnZI-72" style="edgeStyle=orthogonalEdgeStyle;rounded=0;orthogonalLoop=1;jettySize=auto;html=1;entryX=0.5;entryY=0;entryDx=0;entryDy=0;startArrow=classic;startFill=1;" edge="1" parent="1XSzjVtJwLmHqd4a_Qun-16" source="1XSzjVtJwLmHqd4a_Qun-6" target="OByAy30Esht4Jp0frHA6-57">
          <mxGeometry relative="1" as="geometry" />
        </mxCell>
        <mxCell id="DRF6OlptFZyDDZ0QlnZI-173" value="&lt;font style=&quot;font-size: 36px;&quot;&gt;Repository&lt;/font&gt;" style="text;html=1;align=center;verticalAlign=middle;resizable=0;points=[];autosize=1;strokeColor=none;fillColor=none;" vertex="1" parent="1XSzjVtJwLmHqd4a_Qun-16">
          <mxGeometry x="741.32" y="580.55" width="200" height="60" as="geometry" />
        </mxCell>
        <mxCell id="DRF6OlptFZyDDZ0QlnZI-174" value="&lt;font style=&quot;font-size: 36px;&quot;&gt;Interface&lt;/font&gt;" style="text;html=1;align=center;verticalAlign=middle;resizable=0;points=[];autosize=1;strokeColor=none;fillColor=none;" vertex="1" parent="1XSzjVtJwLmHqd4a_Qun-16">
          <mxGeometry x="761.32" y="842" width="160" height="60" as="geometry" />
        </mxCell>
        <mxCell id="OByAy30Esht4Jp0frHA6-85" value="&lt;font style=&quot;font-size: 36px;&quot;&gt;Database&lt;/font&gt;" style="text;html=1;align=center;verticalAlign=middle;resizable=0;points=[];autosize=1;strokeColor=none;fillColor=none;" vertex="1" parent="1XSzjVtJwLmHqd4a_Qun-16">
          <mxGeometry x="8.609999999999964" y="1227.0000000000002" width="180" height="60" as="geometry" />
        </mxCell>
        <mxCell id="OByAy30Esht4Jp0frHA6-86" value="&lt;font style=&quot;font-size: 36px;&quot;&gt;Server&lt;/font&gt;" style="text;html=1;align=center;verticalAlign=middle;resizable=0;points=[];autosize=1;strokeColor=none;fillColor=none;" vertex="1" parent="1XSzjVtJwLmHqd4a_Qun-16">
          <mxGeometry x="727.5" y="1217.0000000000002" width="130" height="60" as="geometry" />
        </mxCell>
        <mxCell id="OByAy30Esht4Jp0frHA6-48" value="&lt;font style=&quot;font-size: 36px;&quot;&gt;Application&lt;/font&gt;" style="text;html=1;align=center;verticalAlign=middle;resizable=0;points=[];autosize=1;strokeColor=none;fillColor=none;" vertex="1" parent="1XSzjVtJwLmHqd4a_Qun-16">
          <mxGeometry x="748.5" y="37" width="200" height="60" as="geometry" />
        </mxCell>
        <mxCell id="1XSzjVtJwLmHqd4a_Qun-10" value="" style="edgeStyle=orthogonalEdgeStyle;rounded=0;orthogonalLoop=1;jettySize=auto;html=1;startArrow=classic;startFill=1;" edge="1" parent="1XSzjVtJwLmHqd4a_Qun-15" source="1XSzjVtJwLmHqd4a_Qun-4" target="1XSzjVtJwLmHqd4a_Qun-2">
          <mxGeometry relative="1" as="geometry" />
        </mxCell>
        <mxCell id="ssy3nLR4-ETo5lvdwy51-19" value="" style="rounded=0;whiteSpace=wrap;html=1;" vertex="1" parent="1XSzjVtJwLmHqd4a_Qun-15">
          <mxGeometry x="172.5" y="323" width="140" height="20" as="geometry" />
        </mxCell>
        <mxCell id="DRF6OlptFZyDDZ0QlnZI-1" value="" style="group" connectable="0" vertex="1" parent="1XSzjVtJwLmHqd4a_Qun-15">
          <mxGeometry x="173.75" y="50" width="720" height="240" as="geometry" />
        </mxCell>
        <mxCell id="1XSzjVtJwLmHqd4a_Qun-2" value="" style="rounded=0;whiteSpace=wrap;html=1;fillColor=none;" vertex="1" parent="DRF6OlptFZyDDZ0QlnZI-1">
          <mxGeometry width="720" height="240" as="geometry" />
        </mxCell>
        <mxCell id="1XSzjVtJwLmHqd4a_Qun-3" value="&amp;lt;&amp;lt;subsystem&amp;gt;&amp;gt;&lt;br&gt;UI" style="text;html=1;strokeColor=none;fillColor=none;align=center;verticalAlign=middle;whiteSpace=wrap;rounded=0;" vertex="1" parent="DRF6OlptFZyDDZ0QlnZI-1">
          <mxGeometry x="330" y="12" width="60" height="30" as="geometry" />
        </mxCell>
        <mxCell id="1XSzjVtJwLmHqd4a_Qun-32" value="" style="group" connectable="0" vertex="1" parent="DRF6OlptFZyDDZ0QlnZI-1">
          <mxGeometry x="160" y="70" width="120" height="60" as="geometry" />
        </mxCell>
        <mxCell id="1XSzjVtJwLmHqd4a_Qun-33" value="" style="rounded=0;whiteSpace=wrap;html=1;fillColor=none;" vertex="1" parent="1XSzjVtJwLmHqd4a_Qun-32">
          <mxGeometry width="120" height="60" as="geometry" />
        </mxCell>
        <mxCell id="1XSzjVtJwLmHqd4a_Qun-34" value="&amp;lt;&amp;lt;subsystem&amp;gt;&amp;gt;&lt;br&gt;Main Page UI" style="text;html=1;strokeColor=none;fillColor=none;align=center;verticalAlign=middle;whiteSpace=wrap;rounded=0;" vertex="1" parent="1XSzjVtJwLmHqd4a_Qun-32">
          <mxGeometry x="30" y="15" width="60" height="30" as="geometry" />
        </mxCell>
        <mxCell id="1XSzjVtJwLmHqd4a_Qun-35" value="" style="group" connectable="0" vertex="1" parent="DRF6OlptFZyDDZ0QlnZI-1">
          <mxGeometry x="300" y="70" width="130" height="60" as="geometry" />
        </mxCell>
        <mxCell id="1XSzjVtJwLmHqd4a_Qun-36" value="" style="rounded=0;whiteSpace=wrap;html=1;fillColor=none;" vertex="1" parent="1XSzjVtJwLmHqd4a_Qun-35">
          <mxGeometry width="120" height="60" as="geometry" />
        </mxCell>
        <mxCell id="1XSzjVtJwLmHqd4a_Qun-37" value="&amp;lt;&amp;lt;subsystem&amp;gt;&amp;gt;&lt;br&gt;Upload Project UI" style="text;html=1;strokeColor=none;fillColor=none;align=center;verticalAlign=middle;whiteSpace=wrap;rounded=0;" vertex="1" parent="1XSzjVtJwLmHqd4a_Qun-35">
          <mxGeometry x="10" y="15" width="100" height="30" as="geometry" />
        </mxCell>
        <mxCell id="1XSzjVtJwLmHqd4a_Qun-43" value="" style="group" connectable="0" vertex="1" parent="DRF6OlptFZyDDZ0QlnZI-1">
          <mxGeometry x="435" y="70" width="150" height="60" as="geometry" />
        </mxCell>
        <mxCell id="1XSzjVtJwLmHqd4a_Qun-44" value="" style="rounded=0;whiteSpace=wrap;html=1;fillColor=none;" vertex="1" parent="1XSzjVtJwLmHqd4a_Qun-43">
          <mxGeometry x="4" width="120" height="60" as="geometry" />
        </mxCell>
        <mxCell id="1XSzjVtJwLmHqd4a_Qun-45" value="&amp;lt;&amp;lt;subsystem&amp;gt;&amp;gt;&lt;br&gt;Project Detail UI" style="text;html=1;strokeColor=none;fillColor=none;align=center;verticalAlign=middle;whiteSpace=wrap;rounded=0;" vertex="1" parent="1XSzjVtJwLmHqd4a_Qun-43">
          <mxGeometry x="4" y="15" width="120" height="30" as="geometry" />
        </mxCell>
        <mxCell id="1XSzjVtJwLmHqd4a_Qun-46" value="" style="rounded=0;whiteSpace=wrap;html=1;fillColor=none;" vertex="1" parent="DRF6OlptFZyDDZ0QlnZI-1">
          <mxGeometry x="578" y="70" width="120" height="60" as="geometry" />
        </mxCell>
        <mxCell id="1XSzjVtJwLmHqd4a_Qun-47" value="&amp;lt;&amp;lt;subsystem&amp;gt;&amp;gt;&lt;br&gt;Edit Project UI" style="text;html=1;strokeColor=none;fillColor=none;align=center;verticalAlign=middle;whiteSpace=wrap;rounded=0;" vertex="1" parent="DRF6OlptFZyDDZ0QlnZI-1">
          <mxGeometry x="578" y="85" width="120" height="30" as="geometry" />
        </mxCell>
        <mxCell id="ssy3nLR4-ETo5lvdwy51-17" value="" style="rounded=0;whiteSpace=wrap;html=1;" vertex="1" parent="DRF6OlptFZyDDZ0QlnZI-1">
          <mxGeometry x="20" y="50" width="40" height="20" as="geometry" />
        </mxCell>
        <mxCell id="ssy3nLR4-ETo5lvdwy51-18" value="" style="rounded=0;whiteSpace=wrap;html=1;" vertex="1" parent="DRF6OlptFZyDDZ0QlnZI-1">
          <mxGeometry x="160" y="50" width="40" height="20" as="geometry" />
        </mxCell>
        <mxCell id="ssy3nLR4-ETo5lvdwy51-24" value="" style="rounded=0;whiteSpace=wrap;html=1;" vertex="1" parent="DRF6OlptFZyDDZ0QlnZI-1">
          <mxGeometry x="300" y="50" width="40" height="20" as="geometry" />
        </mxCell>
        <mxCell id="ssy3nLR4-ETo5lvdwy51-25" value="" style="rounded=0;whiteSpace=wrap;html=1;" vertex="1" parent="DRF6OlptFZyDDZ0QlnZI-1">
          <mxGeometry x="440" y="50" width="45" height="20" as="geometry" />
        </mxCell>
        <mxCell id="ssy3nLR4-ETo5lvdwy51-26" value="" style="rounded=0;whiteSpace=wrap;html=1;" vertex="1" parent="DRF6OlptFZyDDZ0QlnZI-1">
          <mxGeometry x="20" y="150" width="40" height="20" as="geometry" />
        </mxCell>
        <mxCell id="1XSzjVtJwLmHqd4a_Qun-73" value="" style="rounded=0;whiteSpace=wrap;html=1;fillColor=none;" vertex="1" parent="DRF6OlptFZyDDZ0QlnZI-1">
          <mxGeometry x="578" y="170" width="120" height="60" as="geometry" />
        </mxCell>
        <mxCell id="1XSzjVtJwLmHqd4a_Qun-74" value="&amp;lt;&amp;lt;subsystem&amp;gt;&amp;gt;&lt;br&gt;Following/Follower List UI" style="text;html=1;strokeColor=none;fillColor=none;align=center;verticalAlign=middle;whiteSpace=wrap;rounded=0;" vertex="1" parent="DRF6OlptFZyDDZ0QlnZI-1">
          <mxGeometry x="578" y="185" width="120" height="30" as="geometry" />
        </mxCell>
        <mxCell id="ssy3nLR4-ETo5lvdwy51-35" value="" style="rounded=0;whiteSpace=wrap;html=1;" vertex="1" parent="DRF6OlptFZyDDZ0QlnZI-1">
          <mxGeometry x="440" y="150" width="40" height="20" as="geometry" />
        </mxCell>
        <mxCell id="ssy3nLR4-ETo5lvdwy51-36" value="" style="rounded=0;whiteSpace=wrap;html=1;" vertex="1" parent="DRF6OlptFZyDDZ0QlnZI-1">
          <mxGeometry x="578" y="150" width="40" height="20" as="geometry" />
        </mxCell>
        <mxCell id="ssy3nLR4-ETo5lvdwy51-37" value="" style="rounded=0;whiteSpace=wrap;html=1;" vertex="1" parent="DRF6OlptFZyDDZ0QlnZI-1">
          <mxGeometry x="578" y="50" width="40" height="20" as="geometry" />
        </mxCell>
        <mxCell id="OByAy30Esht4Jp0frHA6-49" value="&lt;font style=&quot;font-size: 36px;&quot;&gt;UI&lt;/font&gt;" style="text;html=1;align=center;verticalAlign=middle;resizable=0;points=[];autosize=1;strokeColor=none;fillColor=none;" vertex="1" parent="1XSzjVtJwLmHqd4a_Qun-15">
          <mxGeometry x="990" y="133" width="60" height="60" as="geometry" />
        </mxCell>
        <mxCell id="ssy3nLR4-ETo5lvdwy51-16" value="" style="rounded=0;whiteSpace=wrap;html=1;" vertex="1" parent="1XSzjVtJwLmHqd4a_Qun-15">
          <mxGeometry x="173.75" y="30" width="140" height="20" as="geometry" />
        </mxCell>
        <mxCell id="1XSzjVtJwLmHqd4a_Qun-24" value="" style="group" connectable="0" vertex="1" parent="1">
          <mxGeometry x="322.75" y="120" width="130" height="60" as="geometry" />
        </mxCell>
        <mxCell id="1XSzjVtJwLmHqd4a_Qun-25" value="" style="rounded=0;whiteSpace=wrap;html=1;fillColor=none;" vertex="1" parent="1XSzjVtJwLmHqd4a_Qun-24">
          <mxGeometry width="120" height="60" as="geometry" />
        </mxCell>
        <mxCell id="1XSzjVtJwLmHqd4a_Qun-26" value="&amp;lt;&amp;lt;subsystem&amp;gt;&amp;gt;&lt;br&gt;SignUp/SignIn UI" style="text;html=1;strokeColor=none;fillColor=none;align=center;verticalAlign=middle;whiteSpace=wrap;rounded=0;" vertex="1" parent="1XSzjVtJwLmHqd4a_Qun-24">
          <mxGeometry x="10" y="15" width="100" height="30" as="geometry" />
        </mxCell>
        <mxCell id="1XSzjVtJwLmHqd4a_Qun-64" value="" style="group" connectable="0" vertex="1" parent="1">
          <mxGeometry x="462.75" y="220" width="120" height="60" as="geometry" />
        </mxCell>
        <mxCell id="1XSzjVtJwLmHqd4a_Qun-65" value="" style="rounded=0;whiteSpace=wrap;html=1;fillColor=none;" vertex="1" parent="1XSzjVtJwLmHqd4a_Qun-64">
          <mxGeometry width="120" height="60" as="geometry" />
        </mxCell>
        <mxCell id="1XSzjVtJwLmHqd4a_Qun-66" value="&amp;lt;&amp;lt;subsystem&amp;gt;&amp;gt;&lt;br&gt;Edit Library UI" style="text;html=1;strokeColor=none;fillColor=none;align=center;verticalAlign=middle;whiteSpace=wrap;rounded=0;" vertex="1" parent="1XSzjVtJwLmHqd4a_Qun-64">
          <mxGeometry x="30" y="15" width="60" height="30" as="geometry" />
        </mxCell>
        <mxCell id="ssy3nLR4-ETo5lvdwy51-27" value="" style="rounded=0;whiteSpace=wrap;html=1;" vertex="1" parent="1XSzjVtJwLmHqd4a_Qun-64">
          <mxGeometry y="-20" width="40" height="20" as="geometry" />
        </mxCell>
        <mxCell id="1XSzjVtJwLmHqd4a_Qun-67" value="" style="group" connectable="0" vertex="1" parent="1">
          <mxGeometry x="602.75" y="205" width="130" height="60" as="geometry" />
        </mxCell>
        <mxCell id="1XSzjVtJwLmHqd4a_Qun-68" value="" style="rounded=0;whiteSpace=wrap;html=1;fillColor=none;" vertex="1" parent="1XSzjVtJwLmHqd4a_Qun-67">
          <mxGeometry y="15" width="120" height="60" as="geometry" />
        </mxCell>
        <mxCell id="1XSzjVtJwLmHqd4a_Qun-69" value="&amp;lt;&amp;lt;subsystem&amp;gt;&amp;gt;&lt;br&gt;Profile UI" style="text;html=1;strokeColor=none;fillColor=none;align=center;verticalAlign=middle;whiteSpace=wrap;rounded=0;" vertex="1" parent="1XSzjVtJwLmHqd4a_Qun-67">
          <mxGeometry x="10" y="30" width="100" height="30" as="geometry" />
        </mxCell>
        <mxCell id="ssy3nLR4-ETo5lvdwy51-34" value="" style="rounded=0;whiteSpace=wrap;html=1;" vertex="1" parent="1XSzjVtJwLmHqd4a_Qun-67">
          <mxGeometry y="-5" width="40" height="20" as="geometry" />
        </mxCell>
        <mxCell id="1XSzjVtJwLmHqd4a_Qun-70" value="" style="group" connectable="0" vertex="1" parent="1">
          <mxGeometry x="737.75" y="220" width="150" height="60" as="geometry" />
        </mxCell>
        <mxCell id="1XSzjVtJwLmHqd4a_Qun-71" value="" style="rounded=0;whiteSpace=wrap;html=1;fillColor=none;" vertex="1" parent="1XSzjVtJwLmHqd4a_Qun-70">
          <mxGeometry x="4" width="120" height="60" as="geometry" />
        </mxCell>
        <mxCell id="1XSzjVtJwLmHqd4a_Qun-72" value="&amp;lt;&amp;lt;subsystem&amp;gt;&amp;gt;&lt;br&gt;Edit Profile UI" style="text;html=1;strokeColor=none;fillColor=none;align=center;verticalAlign=middle;whiteSpace=wrap;rounded=0;" vertex="1" parent="1XSzjVtJwLmHqd4a_Qun-70">
          <mxGeometry x="4" y="15" width="120" height="30" as="geometry" />
        </mxCell>
        <mxCell id="1XSzjVtJwLmHqd4a_Qun-75" value="" style="group" connectable="0" vertex="1" parent="1">
          <mxGeometry x="322.75" y="205" width="140" height="60" as="geometry" />
        </mxCell>
        <mxCell id="1XSzjVtJwLmHqd4a_Qun-76" value="" style="rounded=0;whiteSpace=wrap;html=1;fillColor=none;" vertex="1" parent="1XSzjVtJwLmHqd4a_Qun-75">
          <mxGeometry y="15" width="120" height="60" as="geometry" />
        </mxCell>
        <mxCell id="1XSzjVtJwLmHqd4a_Qun-77" value="&amp;lt;&amp;lt;subsystem&amp;gt;&amp;gt;&lt;br&gt;Add Library UI" style="text;html=1;strokeColor=none;fillColor=none;align=center;verticalAlign=middle;whiteSpace=wrap;rounded=0;" vertex="1" parent="1XSzjVtJwLmHqd4a_Qun-75">
          <mxGeometry x="5" y="30" width="110" height="30" as="geometry" />
        </mxCell>
      </root>
    </mxGraphModel>
  </diagram>
</mxfile>
